<svg width="141" height="96" viewBox="0 0 141 96" fill="none" xmlns="http://www.w3.org/2000/svg">
<path d="M115.86 23.2288C119.965 26.8003 123.981 30.4721 127.947 34.1957C128.574 34.7839 129.54 35.2921 129.626 36.1531C129.68 36.6955 128.548 35.8958 128.088 35.6091C116.925 28.6518 105.916 21.4551 94.7896 14.4409C94.0911 14.0005 93.3667 13.5968 92.617 13.248C91.726 12.8336 90.669 12.7328 89.8764 12.1557C84.7996 8.45987 80.0419 4.3502 75.0914 0.488987C74.8176 0.275389 75.5399 1.03905 75.8427 1.20969C88.9213 8.58491 102.051 15.8722 115.207 23.1114C115.4 23.2173 115.694 23.0848 115.86 23.2288Z" fill="#D2D7E4"/>
<path d="M74.8402 47.973C74.8402 47.973 112.993 25.765 115.524 24.2896C115.566 27.8578 116.125 64.9873 116.159 67.5209C116.202 70.5895 114.919 72.8593 112.271 74.3873C107.67 77.0424 85.7121 89.8852 79.3212 93.6253C78.0289 94.3819 76.7078 95.0254 75.1455 94.8773C75.0439 79.8545 74.8402 47.973 74.8402 47.973Z" fill="#A3ACC2"/>
<path d="M74.5451 48.0365C74.5451 48.0365 74.7488 79.9179 74.8505 94.9407C73.479 95.0148 72.2439 94.5774 71.0734 93.9014C61.4714 88.3559 39.0732 75.4058 37.4643 74.4981C34.7907 72.9896 33.5014 70.7251 33.4995 67.6337C33.4957 61.5546 33.255 30.4743 33.209 24.394C35.9054 25.9309 74.5451 48.0365 74.5451 48.0365Z" fill="#C8CEDF"/>
<path d="M115.472 23.9707C111.594 21.7299 107.713 19.4921 103.827 17.2637C100.656 15.4454 86.3297 7.36713 78.7391 3.0895C77.198 2.2215 74.8344 0.963161 74.2824 0.729137C73.5335 1.0565 70.6874 2.35532 69.3064 3.16958C60.3119 8.47534 34.661 23.3204 33.5485 24.4296C36.353 26.0687 63.3446 41.6532 74.0191 47.8357C74.6655 48.2101 75.1033 48.125 75.6859 47.7848C86.3574 41.5512 97.0419 35.3437 107.713 29.1095C110.416 27.5299 113.185 26.0579 115.795 24.32C115.689 24.2019 115.603 24.0467 115.472 23.9707Z" fill="#E0E4EB"/>
<path d="M74.5156 0.738281L74.9367 48.0159C75.2167 48.0095 75.485 47.9042 75.7933 47.7235C86.4389 41.4989 113.203 26.0255 115.807 24.2899C115.7 24.172 115.615 24.017 115.485 23.9411C111.615 21.7032 86.4114 7.36015 78.8388 3.08759C77.5258 2.34722 75.8476 1.55155 74.5156 0.738281Z" fill="#D2D7E4"/>
<path d="M50.3835 77.41L38.2885 70.4946C37.5185 70.054 37.0401 69.235 37.0343 68.347L36.987 61.1676C36.9745 59.2662 39.0133 58.0723 40.6632 59.0163L52.7575 65.9324C53.5276 66.3729 54.0065 67.1919 54.0124 68.0793L54.0596 75.2581C54.0721 77.1602 52.0334 78.3534 50.3835 77.41Z" fill="#E4E7EF"/>
<path d="M113.829 24.2608C119.159 32.1694 124.383 40.1532 129.32 48.2956C129.745 48.9971 129.893 49.8728 129.82 50.639C129.749 51.3747 129.509 52.2103 128.909 52.5705C117.738 59.2854 106.318 65.6191 94.7627 71.7116C94.1473 72.0361 93.3066 71.9405 92.5864 71.7221C91.89 71.5109 91.1422 71.1055 90.7105 70.483C85.2016 62.5414 79.8853 54.4627 74.8904 46.2111C74.698 45.893 75.3177 45.6917 75.6048 45.5283C88.0953 38.4125 100.636 31.3767 113.203 24.3846C113.384 24.2835 113.698 24.0663 113.829 24.2608Z" fill="#B7C0D8"/>
<path d="M74.4361 0.63169C69.4002 3.2576 64.4268 6.00293 59.4343 8.71139C58.4083 9.26789 57.4031 9.86243 56.3813 10.4266C55.6054 10.8549 54.8069 11.2419 54.0419 11.6893C42.0352 18.7127 29.9982 25.6867 18.0677 32.8375C17.9546 32.9055 18.1375 33.0764 18.153 33.2001C18.1711 33.3445 18.0362 33.7163 18.1687 33.6379C23.2143 30.6589 28.0787 27.3853 33.104 24.3725C33.4085 24.19 33.8139 24.249 34.1224 24.0735C47.4501 16.4943 60.7304 8.83207 73.9843 1.12498C74.1782 1.01212 74.6353 0.527923 74.4361 0.63169Z" fill="#A3ACC2"/>
<path d="M34.0915 24.8009C29.3435 32.4016 24.93 40.1264 20.4885 47.8385C20.1351 48.4521 19.7062 49.085 19.714 49.766C19.7211 50.3708 19.8792 51.1186 20.5303 51.5101C32.177 58.5146 44.1378 65.2273 56.2666 71.7495C56.9325 72.1075 57.878 72.1108 58.66 72.0143C59.4772 71.9135 60.4773 71.7277 60.8427 71.1847C65.9357 63.6164 70.4713 55.8251 74.8303 47.9848C74.9695 47.7346 74.4122 47.4956 74.1098 47.322C61.0488 39.8219 47.9253 32.3837 34.7684 24.9794C34.5758 24.8711 34.1884 24.6458 34.0915 24.8009Z" fill="#D2D7E4"/>
</svg>
